# xmcd CD database file
#
# Track frame offsets:
#	150
#	20025
#	40050
#	61650
#	81675
#	103200
#	127050
#	146025
#	165675
#	192375
#	213975
#	239250
#
# Disc length: 3475 seconds
#
# Revision: 1
# Processed by: cddbd v1.5.1PL2 Copyright (c) Steve Scherf et al.
# Submitted via: freeDBTagger 0.5
#
DISCID=b30d910c
DTITLE=平井堅 - 歌バカ disk-2
DYEAR=2005
DGENRE=blues
TTITLE0=Miracles
TTITLE1=KISS OF LIFE
TTITLE2=Missin' you ～It will break my heart～
TTITLE3=Strawberry Sex
TTITLE4=大きな古時計
TTITLE5=Ring
TTITLE6=LIFE is…～another story～
TTITLE7=Style
TTITLE8=瞳をとじて
TTITLE9=キミはともだち
TTITLE10=思いがかさなるその前に・・・
TTITLE11=POP STAR
EXTD=
EXTT0=
EXTT1=
EXTT2=
EXTT3=
EXTT4=
EXTT5=
EXTT6=
EXTT7=
EXTT8=
EXTT9=
EXTT10=
EXTT11=
PLAYORDER=
